<svg width="42" height="42" viewBox="0 0 42 42" xmlns="http://www.w3.org/2000/svg"><g fill="none" fill-rule="evenodd"><path d="M42 21a21 21 0 1 1-42 0 21 21 0 0 1 42 0Z" fill-opacity=".33" fill="#8D8D8D" fill-rule="nonzero"/><path d="M5 5h32v32H5z"/><path d="M21.5 12.6v3.95l5.25-5.28L21.5 6v3.95a10.52 10.52 0 0 0-8.87 16.17l1.91-1.93a7.9 7.9 0 0 1 6.96-11.6Zm8.87 2.28-1.91 1.93a7.9 7.9 0 0 1-6.96 11.6v-3.96l-5.25 5.28L21.5 35v-3.95a10.52 10.52 0 0 0 8.87-16.17Z" fill="#8D8D8D" fill-rule="nonzero"/></g></svg>